# xmcd
#
# Track frame offsets:
#	150
#	9926
#	20717
#	29053
#	36701
#	47614
#	56497
#	68077
#	78176
#	90410
#	98440
#	111011
#	122716
#	132626
#	142459
#	153781
#	164913
#	172447
#	180617
#	189878
#	199867
#	211711
#
# Disc length: 2939 seconds
#
# Revision: 1
# Processed by: cddbd v1.5PL3 Copyright (c) Steve Scherf et al.
# Submitted via: EasyCDDAExtractor 7.0.5.4
#
DISCID=390b7916
DTITLE=Jonny Cash - Doin' my time
DYEAR=2000
DGENRE=country
TTITLE0=Rock island line
TTITLE1=I heard that lonesome whistle blow
TTITLE2=Country boy
TTITLE3=If the good Lord's willing and the creeks don't rise
TTITLE4=Cry,cry,cry
TTITLE5=Remember me
TTITLE6=I'm so doggone lonesome
TTITLE7=I was there when it happened
TTITLE8=I walk the line
TTITLE9=Wreck of the old '97
TTITLE10=Folsome prison blues
TTITLE11=Doin' my time
TTITLE12=Hey porter
TTITLE13=Ballad of a teenage queen
TTITLE14=Big river
TTITLE15=Mean-eyed cat
TTITLE16=Come in stranger
TTITLE17=Guess things happen that way
TTITLE18=Luther played the boogie
TTITLE19=Get Rhythm
TTITLE20=Home of the blues
TTITLE21=Two timin' woman
EXTD=
EXTT0=
EXTT1=
EXTT2=
EXTT3=
EXTT4=
EXTT5=
EXTT6=
EXTT7=
EXTT8=
EXTT9=
EXTT10=
EXTT11=
EXTT12=
EXTT13=
EXTT14=
EXTT15=
EXTT16=
EXTT17=
EXTT18=
EXTT19=
EXTT20=
EXTT21=
PLAYORDER=
